<svg width="485" height="327" viewBox="0 0 485 327" fill="none" xmlns="http://www.w3.org/2000/svg">
<path d="M484.06 314.031C484.06 314.031 453.86 238.911 409.93 162.161C404.75 171.421 399.36 180.711 393.78 189.911C446.56 249.151 484.06 314.031 484.06 314.031Z" fill="black"/>
<path d="M0 314.031C0 314.031 37.19 249.061 89.76 189.791C84.68 181.391 79.77 172.921 75.02 164.461C30.86 240.411 0 314.031 0 314.031Z" fill="black"/>
<path d="M123.27 155.191C159.96 120.901 201.06 94.6307 241.01 94.3807C281.1 94.1307 322.57 120.421 359.68 154.891C369.84 146.121 379.65 136.811 389 127.311C345.66 58.7107 291.34 -2.03929 241.77 0.0907079C192.9 -2.70929 140.79 59.7307 96.2 129.641C104.86 138.441 113.91 147.051 123.27 155.191Z" fill="black"/>
<path d="M480.2 13.3607C480.2 13.3607 442.13 73.3207 388.99 127.311C396.25 138.801 403.25 150.501 409.93 162.161C452.22 86.5407 480.2 13.3607 480.2 13.3607Z" fill="#FBBE26"/>
<path d="M3.85999 13.3607C3.85999 13.3607 32.16 88.0307 75.02 164.451C81.79 152.811 88.87 141.131 96.2 129.631C42.47 75.0607 3.85999 13.3607 3.85999 13.3607Z" fill="#FBBE26"/>
<path d="M359.67 154.891C322.94 186.601 281.76 211.211 242.03 211.721C201.89 212.231 160.27 187.421 123.26 155.201C111.58 166.111 100.36 177.831 89.75 189.791C132.43 260.361 186.37 325.481 240.58 326.581C295.25 327.691 350.26 261.631 393.77 189.911C382.98 177.801 371.56 165.921 359.67 154.891Z" fill="#FBBE26"/>
<path d="M123.27 155.191C113.92 147.051 104.87 138.441 96.2 129.641C88.87 141.131 81.79 152.821 75.02 164.461C79.76 172.921 84.68 181.391 89.76 189.791C100.36 177.831 111.59 166.111 123.27 155.191Z" fill="#FBBE26"/>
<path d="M359.67 154.891C371.55 165.931 382.98 177.801 393.77 189.911C399.35 180.711 404.75 171.421 409.92 162.161C403.24 150.491 396.24 138.791 388.98 127.311C379.65 136.811 369.83 146.121 359.67 154.891Z" fill="black"/>
</svg>
