<svg width="1000" height="493" viewBox="0 0 1000 493" fill="none" xmlns="http://www.w3.org/2000/svg">
<g clip-path="url(#clip0_30_2)">
<path d="M491 57.2L490.7 57.6H489.9L488.5 57.3L487.3 58.6L486.6 60.2L486.1 60.9H485.5L484.9 60.2L484.4 59.2L484.3 57.6L484.6 56.5L484.5 54.9L483.1 54.1L479.4 51L478.4 49L479.8 47.4L484.7 46.2L486.4 44.9L487.5 43.4L488.4 41.3L489 41.5L489.7 43.7L490.5 45.4L492 47L493.1 48.5L493.7 49.7L493.4 50.4L492.4 50.9L491.9 52L490.9 52.8L490.7 54.3V55.8L491 57.2Z" fill="#7C7C7C" stroke="white" stroke-width="2" stroke-linecap="round" stroke-linejoin="round"/>
<path d="M723.5 44.7L724.4 47.8L724 49.7L723.4 49.9H722.8L721.5 49.5H721L720 50.2L717.7 52.7L717.3 53.7L716.8 55.9L716.3 56.7L715.6 57.3L713.2 58.1L711.4 58.5L690 58L688.9 58.2L688 59.4L687.5 61L686.5 62.5L685.2 62.9L682.3 62.5L678.1 60.7L677.2 60.5L676.5 60.7L671.7 63.3L670.4 63.6H669.4L666.6 62.6L664.2 62.7L658.5 61.4L657.6 61.3L657 61.6L656.5 62.1L654.8 66L653.7 66.6L646.9 68.2L640.6 71.1L638.6 72.3L636.7 73.8L631.8 79.8L631.2 80.4L629 82L628.1 82.4L627.3 82.6L626 82.5L624.9 82.2L623.4 81.3H621.3L608.7 84.4L607.1 84.5L600.3 83.9L599 84.1L598.2 84.6L597.4 86.7L595.9 87.8L593.7 88.8L592.5 89.6L590.3 91.5L589.1 91.9L588.1 92.2L586.8 92.3L586.3 92.7L586.1 93.3V95.2L585.6 96.8L585.3 97.3L584.5 97.9L581 100.2L579.3 101L579 101.5L577.8 102.9L573.1 106L571.8 106.4L571.2 106.3L571.5 103.4L571.4 102.7L571 101.6L570.2 100.7L569.7 100.8L568.2 101.5L561.6 103.1L560.3 103.2L559.6 103L555.9 101.2L554.6 101.5L553.5 102.3L550.9 103.2L549.9 103.4L536.1 102.8L532.5 101.6L531.1 102L530.7 102.4L529.5 103.4L526.6 104.4L524.2 101.4L523.3 101L522.5 100.9L521.3 102L520.1 102.5L507 104.6L506 105.2L507.7 109.6L511.9 116.4L512.6 118L512.7 119.3L512.2 119.7L511.6 119.8L510.9 119.6L508.9 118.8H508.2L501.2 119.5L499.4 120.4L495.9 125.2L493.8 128.3L492.6 128.4L491.9 126.6L491.4 126.1L489.3 126L473.3 128.5L472.3 128.2L470.8 127.5L467.2 126.9H465L463.7 127.4L463.4 128.6L461.8 138.8L461.9 140.1L462.1 141.5L464.4 142.1L465.2 142.5L465.8 143.3V144.2L464.7 145L463.8 145.8L462.7 147.4L461.9 148.8L461.6 150L461.5 151.5L461.9 153.5L461.8 154.5L461.4 155.5L459.1 158L458.4 159.1L458.1 159.9L458 160.8L458.2 162.9L457.9 163.8L457.3 164.6L456.3 165.4L455.3 165.9H454.6L453.5 165.4L452.3 164.4L451.4 164.2L450.8 164.4L448.3 166.2L447.5 167L447.1 167.8L446.9 168.8L446.4 171.8L446 172.5L445.4 173L444.6 172.7L444.1 171.7L443.9 170.2L444.4 167.5L444.3 166L443.7 165.3H443.2L441 166L439.5 166.1L438.1 165.5L437 164.4L436 162.5L434.7 161.2L434.3 160.6L433.5 158.4L432.6 156.9L428.9 159.9L427.2 160.6L425.7 160.5L414.9 161.6L413.4 156.5L412.5 154.8L411.2 154.1L410.4 153.9L408.5 153.5L407.7 153.4L406.6 153.7L404.5 154.8L404 155.2L402.7 156.8L402.3 157.2L401.5 157.6L400.1 157.8L399.1 157.7L390.8 154.4L389.6 154.2L388.3 154.3L385.6 154.9H384.3L381.4 153.7L379.5 153.4L376.9 154.1L376.3 153.5L375.7 151.1L375.3 150L374.4 148.9L373.6 148.2L372 147.2L370.9 146.8L369.9 146.5H368.4L367.8 146.2L366.5 144.8L365.4 144.4L361.4 143.7L356.7 141.9L355.5 141.6H354.5L353.9 141.8L353.2 141L352.6 139.4L353.5 137.6L353.8 136.9L353.6 136.1L352.9 135.6L349.6 134.6L349 134.1L348.7 133.5V132L349.5 128.3L349.8 127.4L350.4 126.7L351.4 126.3L354.4 126.4L355.6 126.2L356.6 125.3L357.6 124L358.3 123.4L360.9 122.1L363 121.5L364.7 121.3L366.4 120.8L367.7 120.6L369.4 120.9L370.5 121.3L371.8 121.6L373.2 121.4L376.7 119.9L378.3 119.5L380.4 119.4L383.8 119.9L384.5 120.2L387 121.6H388.5L390.4 121.1L395.9 118.7L397.2 118L399.8 114.5L400 112.5L400.5 111.4L402 109.3L404.4 107L404.8 106.3L405.1 105.3L405 103.9L404.8 103L403.6 101.3L402.2 101L399.6 101.3H398.7L397.2 100.8L396.3 100L395.8 98.9L395.2 96.8L394.9 96.4H394.5L393.8 97.3L393.4 98.4L393.2 99.9L393.6 101.7L392.9 103.1L390.7 105.2L388.1 104.8L381.6 92.2L380.2 88.3L379.5 84.2L379.7 79.5L380.8 75.2L385.6 64.3L388 59L388.3 57.1L388 54.8L386.9 50.7L386.7 48.6L387 46.5L387.7 44.7L389.6 41.4L393 31.4L394.1 29.5L395.5 28.3L399.8 25.8L415.3 19.3L416.8 18.9L420.6 19.1L424 17.3L427 8.7L429.7 6.6L431.6 7.2L434.8 10.4L436.5 10.9L450.7 9.2L452.2 8.3L452.5 6.6L451.5 4.4L449 1L451.7 2.5L456.3 6.7L458.8 7.8L461.8 8.5L464.4 9.8L469.1 13.7L470.9 14.7L474.7 15.1L478 17.2L481.7 18.3L483.4 19.2L484.6 20.8L486.9 24.8L488.2 26.3L497.5 33.5L500.6 34.7L510.9 36.5L518.7 40.3L521.3 42.6L523.8 43.9L529.3 45.6L531.9 47.1L534 48.8L539.5 52.1L541.9 52.7L547.9 52.6L568.3 55.3L571.8 54.9L573.6 55.1L579.5 57.6L581.8 57.5L584.4 56.3L587 54.5L589.2 52.2L590.1 50.6L593.1 42.7L594.1 41.8L595.5 41.4L601.1 41L604.6 41.5L611.7 43.6L613.7 43.7L619.7 41.7L622 41.6L628.6 43.3H636.8L644.6 45.7L645.6 45.5L647.4 44.7L648.5 44.6L649.4 45.2L650.4 47.2L651.3 47.7L652.9 47.2L655.6 44.5L657.3 43.8L659.7 44.1L664.4 46.1L666.7 46.5L668.6 46.1L672.1 44.5L676.1 44.6L677.9 44.2L681.3 42.3L681.7 41.9L682 40.8L682.7 40.7L684.3 41H684.9L685.6 40.6L687.5 38.3L689.2 37L691 36.7H695L698.6 35.2L700.4 34.9L702.2 35.7L712.4 37.4L715.5 38.6L716.5 39.5L719.1 43.2L720.5 44.3L721.9 44.6L723.5 44.7ZM491 57.2L490.7 55.8V54.3L490.9 52.8L491.9 52L492.4 50.9L493.4 50.4L493.7 49.7L493.1 48.5L492 47L490.5 45.4L489.7 43.7L489 41.5L488.4 41.3L487.5 43.4L486.4 44.9L484.7 46.2L479.8 47.4L478.4 49L479.4 51L483.1 54.1L484.5 54.9L484.6 56.5L484.3 57.6L484.4 59.2L484.9 60.2L485.5 60.9H486.1L486.6 60.2L487.3 58.6L488.5 57.3L489.9 57.6H490.7L491 57.2Z" fill="#7C7C7C" stroke="white" stroke-width="2" stroke-linecap="round" stroke-linejoin="round"/>
<path d="M815.7 256.7L813.8 255.4L812.8 254.1L812.3 253.1L811.6 251.2L810.9 249.4L810.3 248.5L809.6 247.9L807.9 247.2H806.4L805.4 247.7L803.4 248.9L802.1 250L798 252.3L795.8 252.9L791.5 253.4H784.8L773.2 250.3L764.7 250.4L763.5 250.2L762.7 249.8L762.4 249.3L762.1 248.1V246.8L762.5 245.4L763.7 242.7L763.8 241.3L763.5 240.6L762.7 239.9L761.3 239.6L758.3 239.5L757.3 239.7L754.2 241.2L739.3 245.4L736.4 245.8L736 245.4V244.9L736.3 244.3L737.6 243.1L738.4 242.1L738.7 241.4L739.7 237.5L739.9 236.1L740.2 234.8L741.7 232.6L742 231.6L741.9 231.1L740.7 230L737.7 228.1L733.1 226L731.8 224.7L731.7 223.4L731.3 221L729.9 217.2L730.2 216.7L731.2 217.2L732 217.3L732.6 217L733.3 216.4L734.9 212.2L735.6 209.2L736.1 204.1L735.4 201.8H734.5L733.1 202.8L731.3 203.5L728.3 204.3L727.6 204.7L725.8 206L724.5 206.6L723.6 206.8L707.3 207.2L702.2 205.9L695.8 205.3H694.7L693.6 205.7L690.8 207L688.9 207.5L686.8 207.7L682.3 207.1L681.6 206.8L681 206.5L680.5 205.4L679.5 204.4L678.4 203.9H677.7L676 204.6L674.5 205L673.9 204.8L673.6 204.3L674.1 203.1L675.6 200.9L676.6 199L677.2 196.8L677.4 194.7L677.9 193.2L678.2 192.5L679.6 190.2L679.9 189.6L680.3 187.4V186.1L679.7 185.1L677.7 183.8L675.3 182.5L673.9 182.1L672.9 181.8L672.3 182L670.8 182.8L669 183.2L656.9 182.6L656.5 182.2L656.1 180.9L654.6 179.1L656 176.5L656.9 175.7L658 175.1L658.7 174.9L660.7 174.7L666.4 175.1L669.2 174.8L670 174.3L670.4 173.7L670.7 171L671.5 168L673.3 164L673 163.6H672L669.9 164.7L668.6 164.8L667.2 164.4L664.3 163.3L656.9 159.3L655.5 159L648.8 158.8L648.1 158.7L645.4 157.6L643.4 156.3L639.9 155.3L638.5 155.2L636.3 156L635 156.1L634 155.7L632.7 155L630.5 153.3L629.3 152.6L628.4 152.3L627.9 152.4L625.7 153.4L618.8 155.4L617.2 155.5L615.8 155.1L615.3 154.5L615 153.9L615.4 152.6L616.2 151.6L618.2 150.3L620 148.7L620.9 147.8L621.5 146.6L622 144.4V143.5L621.8 142.5L620.9 141L619.5 139.7L616.2 137.5L615.5 136.7L615.2 136L615.4 134.4L615.3 133.5L614.9 132.9L613.4 132.5L612.7 132.2L612.3 131.7L612.2 130.4L612.7 127.4L612.9 126.7L614.4 122.4L614.5 120.9L614.1 119.7L613.6 118.5L612.5 117.3L610.9 116.2L610.4 115V113.7L610.1 111.9L609.7 110.5L609.1 109.8L608.3 109.4L606 108.8H604.7L604.3 109.3L603.7 110.5L603 111.6L602.2 112.3L600.6 113.1L594 113.5L593.2 113.4L592.4 112.5L591 109.6L589.9 108.5L587.3 107.3L586.7 106.9L585.4 106.4L583.1 106.2L582.4 105.3L581.2 101.3L581 100.2L584.5 97.9L585.3 97.3L585.6 96.8L586.1 95.2V93.3L586.3 92.7L586.8 92.3L588.1 92.2L589.1 91.9L590.3 91.5L592.5 89.6L593.7 88.8L595.9 87.8L597.4 86.7L598.2 84.6L599 84.1L600.3 83.9L607.1 84.5L608.7 84.4L621.3 81.3H623.4L624.9 82.2L626 82.5L627.3 82.6L628.1 82.4L629 82L631.2 80.4L631.8 79.8L636.7 73.8L638.6 72.3L640.6 71.1L646.9 68.2L653.7 66.6L654.8 66L656.5 62.1L657 61.6L657.6 61.3L658.5 61.4L664.2 62.7L666.6 62.6L669.4 63.6H670.4L671.7 63.3L676.5 60.7L677.2 60.5L678.1 60.7L682.3 62.5L685.2 62.9L686.5 62.5L687.5 61L688 59.4L688.9 58.2L690 58L711.4 58.5L713.2 58.1L715.6 57.3L716.3 56.7L716.8 55.9L717.3 53.7L717.7 52.7L720 50.2L721 49.5H721.5L722.8 49.9H723.4L724 49.7L724.4 47.8L723.5 44.7H725.1L734 46.2L736.9 45.3L740.8 43.4L742.2 43.1L743.5 43.2L746.1 44.1H749.7L751.4 45L753 46.3L754.8 47.4H756.3L761 45.1L762.9 44.7L768.9 44.9L775 46.4L775.5 47.2L775.9 48L776.5 48.7L777.6 49.4L779.9 48.4L781.4 47.4L782.2 47L784.3 46.7L786.3 47L788.4 47.7L793.5 50.8L797.5 51.5L807.2 50.6L811.4 50.8L815.5 50.2L817.3 50.5L821 51.9L822.9 52L824.5 51.4L827.7 49.3L829.6 48.6L833.6 48.3L839.6 48.9L848.5 52L852.2 54.2L855.4 56.9L856.9 57.7L867.9 58.8L875.1 61.8L881.1 62.1L884.6 63.5L888 63.7L895.1 60.1L898.6 59.4L900.9 60L901.6 61.3L901.1 66L901.2 68.9L901.7 71.4L902.6 73.7L903.9 76L907.1 79.2L914.3 82.6L917.2 85.7L921.3 95.6L923.7 98.9L928.3 100.9L937 101.4L944.3 100L948.2 100.1L968.3 104.5L972.1 107.1L973.3 108.5L976.8 113.7L982.7 119.1L985.7 123L988.1 127.2L990.8 130.9L994.7 133.3L995.3 135.1L995.6 139.1L996 141.1L997 142.9L998.1 144.4L998.9 146.1L999 148.5L996.6 152.3L992.2 153.9L969.4 153.6L964.8 154.8L961.5 156.2L960 157.4L958.8 159.2L958 161.3L956.9 165.8L956.1 168L952.9 171.1L948.8 171.7L944.6 171.6L940.5 172.6L935.4 176.2L929.5 178.4L922.4 183.4L920.6 184.1H918.5L912.7 182.3L910.8 182.8L909.2 183.9L904.9 187.9L903 189.3L901 190.2L896.8 191.2L893.3 192.6L883.1 200L877.6 201L875.9 201.9L867.8 207.7L855.6 212.5L854.3 213.2L853.1 214.3L852.4 215.6L851.7 218.6L850.8 219.8L847.6 221.3L840.9 222.7L832.5 229.2L828.9 230.9L827.3 232L825.8 233.9L825.5 236L827 240.7L827.3 242.9L826.4 244.9L824.7 246.3L821.1 248.5L819.7 249.9L817.4 253.3L815.7 256.7Z" fill="#7C7C7C" stroke="white" stroke-width="2" stroke-linecap="round" stroke-linejoin="round"/>
<path d="M815.7 256.7L813.3 261.4L812 263.3L810.7 264.8L801.5 272.7L799.9 273.3L798.1 273.1L794.5 271.5L782.7 269.8L779.5 269.9L776.4 270.9L764.5 277.3L763.1 277.8L761.4 278L756.8 277.7L749.8 279.7L747.3 279.6L744.6 278.2L739.5 276L734.4 275L731.5 275.1L726.3 276.8L715 276L712.3 275.1L707.5 272.6L705 272.1L695.3 274.4L691.7 275.9L689.4 278.2L688.1 280.1L684.7 282.6L683.2 284.1L682.3 286.4L682.7 288.7L683.3 291L683.6 293.4L682.8 295.8L681.4 297.3L677.8 299.3L674.8 302L672.4 305.6L670.9 309.9L670.3 322L670 324L669 325.7L664.2 329.4L661.9 333.1L659 341.5L656.9 344.9L654.4 347.3L646.6 352.5L643.7 355.4L642.2 355.9L640.9 354.4L639.5 347.1L638.6 345.1L635.9 344.3L633.3 347.2L630.6 351.1L627.5 353L625.8 352.6L622.4 350.7L620.7 350.1L618.5 350.3L610.4 354.3L609.2 355.9L608.2 358L606.7 360L604.9 361.2L603 361.6L601 361.5L595.2 360L593.2 359.9L591.3 360.1L587.1 361.9L585 362.1L583.5 360.4L582.7 358.3L581.3 353.1L581.1 350.8L581.8 348.5L583 346.9L583.9 345.3L583.7 343.2L582.8 341.9L580.3 339.5L579.3 338L578.6 335.7L578.1 329L576.5 323.9L574 321.4H570.7L566.9 323.7L547.2 339.6L546.3 340.1L545.2 340.4L544.1 340.8L543.6 341.7L543.3 342.9L542.6 343.9L540.9 344.3L539.2 343.4L537.5 342.3L535.8 341.6L533.6 341.9L529.2 344L526.9 344.3L523.6 343.5L520.3 342.1L512.4 336.7L510.4 335.7L508.5 335.9L508.2 336.3L505.8 335.3L498.8 335.4L497.2 335.2L496.1 334.9L495.6 334.5L494.2 332.6L487.5 331.5L486.2 330.8L485.5 330.1L486.4 327.4L486.5 326.7V325.4L485.7 323.8L484.5 322.6L483.5 322L471 317.4L469.1 316.2L465.4 313.1L463.9 311.3L463.2 310.3L462.5 308.8L461.8 307.8L455.4 301.6L453.9 300.7L453 299.8L452.5 299.2L452.3 297.1L452.1 296.2L451.6 294.9L451.1 294.1L450.5 293.5L448.2 292L438.3 283.2L436.7 280.8L444.7 271.1L445.9 269.2L446 268.2L439.1 262.5L438.9 261.6L439.1 260.8L439.8 259.1L440.4 258.4L441.1 258L442.5 258.1H443.4L444.2 257.7L445.2 256.5L446.5 255.6L448 255.3L448.7 254.9L451.1 253.3L451.5 253.2L456.1 253L463.3 251.4L464.6 251.6L466.2 252.3L467.2 252.6L468.5 252.3L469.1 251.7L468 250.4L465.6 246.9L465.1 246L463.9 243V242L464.3 241.5L465.3 241L472.5 238.4L474.8 237L476.3 236.4L477.6 236L483.2 235.1L484.7 234.6L487.9 233L490.6 232.1L491.4 231.5L492.1 230.8L495.3 226.4L495.8 225.3L496.9 221.9L498 217.3L498.8 214.8L499.1 213.5L499.3 209.5L499.5 208.3L500.7 205.6L501 204.8L500.9 203.6L500.1 202.8L497.5 201.1H495.7L495 201.3L494.2 202L493.9 203.1L492.8 204L481.5 208.9L480 209.1L478.5 208.5L477.4 208.4L475.6 208.5L474.7 208.9L472.8 210.5L470.9 211.5L469.7 211.6L468.8 211.3L467.6 210.5L462.7 209.9L458.1 210.1L456 210.4L454.6 210.9L453.7 211.5H452.5L452 211.2L450.6 209.9L449.6 209.2L448.4 208.7L446.3 208.4L444.8 208.5L441.9 209.4L440.9 209.5L439.8 209.3L437.9 208.3L435.9 206.4L435.5 206.1L433.7 205.6L433.1 205.2L432.2 204L431.6 203.3L430.7 202.9L429.6 202.5L428 202.8L427.5 201.9L426.2 198.5L425.3 197H424.9L424.7 196.3L425.2 195.9L427.5 193.8L428 193.4L429.2 193.2L432.9 193.7L434.6 194.2L435.4 194.5L436.2 195.1L437 195.9L437.5 196.8L437.9 197.9L438 198.8V200.4L437.8 202.2L438.4 203.2L439.5 204L442.5 205L443.7 205.1L444.3 204.7V203.8L443.2 194.2L442.7 191.6L442.3 190.6L441.9 190L441.3 189.7L438.4 189L434.5 188.8L431.3 188.1L430.8 187.6V187L431.3 180.4L431.2 178.5L431 176.7L430.3 175.1L429.5 174.4L427.4 173.7L426.4 173.2L425.7 173.1L423.3 174.4L422.7 174.5L422.2 174.3L420.5 172.8L417.5 171.5L417.2 171.7L417.3 172.9L416.9 174.4L416.4 175.1L415.7 175.7L414.9 175.9L414.1 175.8L413.1 175.3L412 174.4L410 171.8L409.3 171.2L408 170.2L407.8 169.2L408.5 168.8H409.7L410.8 168.4L411.3 167.9L412.2 166.1L414.3 163.1L414.9 161.6L425.7 160.5L427.2 160.6L428.9 159.9L432.6 156.9L433.5 158.4L434.3 160.6L434.7 161.2L436 162.5L437 164.4L438.1 165.5L439.5 166.1L441 166L443.2 165.3H443.7L444.3 166L444.4 167.5L443.9 170.2L444.1 171.7L444.6 172.7L445.4 173L446 172.5L446.4 171.8L446.9 168.8L447.1 167.8L447.5 167L448.3 166.2L450.8 164.4L451.4 164.2L452.3 164.4L453.5 165.4L454.6 165.9H455.3L456.3 165.4L457.3 164.6L457.9 163.8L458.2 162.9L458 160.8L458.1 159.9L458.4 159.1L459.1 158L461.4 155.5L461.8 154.5L461.9 153.5L461.5 151.5L461.6 150L461.9 148.8L462.7 147.4L463.8 145.8L464.7 145L465.8 144.2V143.3L465.2 142.5L464.4 142.1L462.1 141.5L461.9 140.1L461.8 138.8L463.4 128.6L463.7 127.4L465 126.9H467.2L470.8 127.5L472.3 128.2L473.3 128.5L489.3 126L491.4 126.1L491.9 126.6L492.6 128.4L493.8 128.3L495.9 125.2L499.4 120.4L501.2 119.5L508.2 118.8H508.9L510.9 119.6L511.6 119.8L512.2 119.7L512.7 119.3L512.6 118L511.9 116.4L507.7 109.6L506 105.2L507 104.6L520.1 102.5L521.3 102L522.5 100.9L523.3 101L524.2 101.4L526.6 104.4L529.5 103.4L530.7 102.4L531.1 102L532.5 101.6L536.1 102.8L549.9 103.4L550.9 103.2L553.5 102.3L554.6 101.5L555.9 101.2L559.6 103L560.3 103.2L561.6 103.1L568.2 101.5L569.7 100.8L570.2 100.7L571 101.6L571.4 102.7L571.5 103.4L571.2 106.3L571.8 106.4L573.1 106L577.8 102.9L579 101.5L579.3 101L581 100.2L581.2 101.3L582.4 105.3L583.1 106.2L585.4 106.4L586.7 106.9L587.3 107.3L589.9 108.5L591 109.6L592.4 112.5L593.2 113.4L594 113.5L600.6 113.1L602.2 112.3L603 111.6L603.7 110.5L604.3 109.3L604.7 108.8H606L608.3 109.4L609.1 109.8L609.7 110.5L610.1 111.9L610.4 113.7V115L610.9 116.2L612.5 117.3L613.6 118.5L614.1 119.7L614.5 120.9L614.4 122.4L612.9 126.7L612.7 127.4L612.2 130.4L612.3 131.7L612.7 132.2L613.4 132.5L614.9 132.9L615.3 133.5L615.4 134.4L615.2 136L615.5 136.7L616.2 137.5L619.5 139.7L620.9 141L621.8 142.5L622 143.5V144.4L621.5 146.6L620.9 147.8L620 148.7L618.2 150.3L616.2 151.6L615.4 152.6L615 153.9L615.3 154.5L615.8 155.1L617.2 155.5L618.8 155.4L625.7 153.4L627.9 152.4L628.4 152.3L629.3 152.6L630.5 153.3L632.7 155L634 155.7L635 156.1L636.3 156L638.5 155.2L639.9 155.3L643.4 156.3L645.4 157.6L648.1 158.7L648.8 158.8L655.5 159L656.9 159.3L664.3 163.3L667.2 164.4L668.6 164.8L669.9 164.7L672 163.6H673L673.3 164L671.5 168L670.7 171L670.4 173.7L670 174.3L669.2 174.8L666.4 175.1L660.7 174.7L658.7 174.9L658 175.1L656.9 175.7L656 176.5L654.6 179.1L656.1 180.9L656.5 182.2L656.9 182.6L669 183.2L670.8 182.8L672.3 182L672.9 181.8L673.9 182.1L675.3 182.5L677.7 183.8L679.7 185.1L680.3 186.1V187.4L679.9 189.6L679.6 190.2L678.2 192.5L677.9 193.2L677.4 194.7L677.2 196.8L676.6 199L675.6 200.9L674.1 203.1L673.6 204.3L673.9 204.8L674.5 205L676 204.6L677.7 203.9H678.4L679.5 204.4L680.5 205.4L681 206.5L681.6 206.8L682.3 207.1L686.8 207.7L688.9 207.5L690.8 207L693.6 205.7L694.7 205.3H695.8L702.2 205.9L707.3 207.2L723.6 206.8L724.5 206.6L725.8 206L727.6 204.7L728.3 204.3L731.3 203.5L733.1 202.8L734.5 201.8H735.4L736.1 204.1L735.6 209.2L734.9 212.2L733.3 216.4L732.6 217L732 217.3L731.2 217.2L730.2 216.7L729.9 217.2L731.3 221L731.7 223.4L731.8 224.7L733.1 226L737.7 228.1L740.7 230L741.9 231.1L742 231.6L741.7 232.6L740.2 234.8L739.9 236.1L739.7 237.5L738.7 241.4L738.4 242.1L737.6 243.1L736.3 244.3L736 244.9V245.4L736.4 245.8L739.3 245.4L754.2 241.2L757.3 239.7L758.3 239.5L761.3 239.6L762.7 239.9L763.5 240.6L763.8 241.3L763.7 242.7L762.5 245.4L762.1 246.8V248.1L762.4 249.3L762.7 249.8L763.5 250.2L764.7 250.4L773.2 250.3L784.8 253.4H791.5L795.8 252.9L798 252.3L802.1 250L803.4 248.9L805.4 247.7L806.4 247.2H807.9L809.6 247.9L810.3 248.5L810.9 249.4L811.6 251.2L812.3 253.1L812.8 254.1L813.8 255.4L815.7 256.7Z" fill="#7C7C7C" stroke="white" stroke-width="2" stroke-linecap="round" stroke-linejoin="round"/>
<path d="M253.1 365.6L256.4 365.4L260.8 363.7L268.8 361.5L270.2 361.7L271.1 362.6L271.8 364.4L271.7 365.6L271.1 367.8V369L271.3 370L271.9 371.3L271.7 372.4L271.1 373.2L270.2 373.7L269.7 374.2L270 375L270.8 375.8L274.6 377.4L275.9 378.4L276.5 379.6L276.6 381.5L276 382.8L274.1 384.5L273.7 385L273.9 385.6L276.8 387L277.7 387.8L278.2 388.7L278.3 389.9L278 390.7L277.6 391.5L277.5 392.4L277.8 393.6L278.6 395.4L278.8 396.7L278.5 397.8L278 398.8L277.6 399.9L277.4 400.9L277.5 401.7L277.8 402.4L278.8 402.9L281.1 403.4L282.4 403.9L283.9 404.9L284.9 405.7L285.8 407.1L287.2 410L289.1 413L290.6 413.7H291.5L293.1 412.5L294 412.1L294.9 412.3L295.5 413L296 415.5L296.5 416.7L297.7 417.8L299.7 420.2L301.7 424L300.5 425.5L300.1 426.8L299.7 427.4L298.3 428.5L295.2 430.1L290.7 431.6L286.4 433.6L284 435.7L282.9 436.4L281.6 437L278.7 437.8L276.7 438.7L273.5 439.3L267.8 438.3L265 438.6L263.5 439L261.6 439.8L260.6 440L259.7 439.9L257.9 438.7L257.2 438.4L255.9 438.6L254.5 438.5L252.6 438.1L251.4 437.6L249.4 436.1L248.2 435.2L246.8 434.6L233.5 431.8L232.1 431.3L230.8 430.6L230.1 429.9L229.6 428.3L228.9 427.8L227.6 427.5H226L224.9 427.9L224.1 428.5L223.2 429.9L222.1 431L220.5 432L213.5 433.7L211.3 435.7L209.4 439.5L209.1 440.3L208.4 443.6L207.6 445.6L206.1 444.3L203 442.4L201.4 442.6L198.3 444L195.7 444.5L194.8 444.8L194.2 445.3L192.9 446.6L192.3 447.2L189.1 448.9L187.9 449.8L185 453.2L184 453.9H182.9L177.7 452.9L173.9 453.1L170.1 454.1L167.2 456.1L165.3 459.4L164 463.2L162.3 466.4L159.4 467.9L156.9 467.2L154.7 465.8L152.7 464.9L151 465.7L149.9 467L149.2 467.2L148.4 467.1H147L145.9 467.5L143.2 469L140.7 469.4L137.9 468.9L135.5 467.5L134.2 465.1V463.6L134.6 462.1L134.8 460.4L134.3 458.8L133.4 458L131.3 457.1L130.3 456.3L128.5 450.6L127.3 448.1L125.1 446.4L123.5 446.2L120.2 446.8L118.6 446.7L117.5 446L115.4 444.2L114.2 443.7L112.6 443.9L109.7 445L108.2 445.3L107.3 445.6L106.3 446.9L105.8 447.3L104.9 447.2L103 446.7L102 446.5L100.9 447L92.8 452.9L91.2 453.3L89.6 452.7L89.5 451.1L90.5 446.9L90.4 444.9L90 442.7L89.2 441.5L87.8 442.6L85.2 448.1L84.5 449.2L83 449.7L81.5 449.2L78.5 447.4L76.6 446.9H74.6L72.8 447.5L71.2 448.9L69.8 450.9L69.1 451.5L66.3 450.3L62.7 449.9L55.7 451.3L52.1 450.2L48.4 448.1L44.8 446.9L41.1 446.4L33.2 446.9L31.6 447.6L28.6 450.2L27.1 451.2L25.4 451.8L23.7 452H21.7L17.8 452.6L15.9 452L13.7 449.7L13.2 449.4L12.4 449.7L11.8 451.4L11.3 452.3L7.7 453.7L6.4 450.9L6.9 436.9L6.5 434.7L5.9 432.7L4.6 431.1L3 429.8L1.6 428.2L1 426L1.3 421.4L2.3 416.9L6.4 404.2L8.2 400.3L8.6 399.2V398.4L8.9 398.2L10.2 398.4L12.9 401.4L17.2 408.9L25.9 405.8L25.8 404.2L23.7 400.4L23.8 399.6L23.5 398.1L23.2 397.4L22.4 393.6L23 390.6L24.5 387.9L26.3 385.2L26.6 384.4L27 382.3L27.4 381.8L28.1 382.1L29.1 383.9L29.7 384.4L31.1 384.6L32.6 384.4L68.2 371.6L71.4 371.9L84.3 380.4L86.3 381L90.8 380.8L92.8 380.9L94.8 381.9L96.1 383.4L97.3 385L98.7 386.6L100.3 387.5L103.5 387.9L107 389.4L114.2 390.5L116.4 391.2L118.5 392.7L119.5 394.8L118.1 397.4L116.7 398.4L115.2 399.2L113.8 400.2L112.6 401.8L111.8 404L111.5 406.1L112.2 407.7L114.2 408.4L115 407.3L115.7 404.7L116.3 403.7L117.4 403.1L121.2 403L123.2 402.3L125 401.1L126.5 399.5L127.8 397.4L128.5 393.3L128.4 389.6L128.8 386.6L131.2 384.3L137 382.3L138.3 381.6L141.8 378.6L142.7 377.5H143.2L144 378.1L145.6 377.3L146.3 376.7L147.5 376.3L152.3 377.4L155.1 376.4L158.1 374.2L159.6 371.3L157.8 368.4L161 365L166.3 364.1L176.8 365.7L179.7 365.4L180.9 363.4L181.7 360.7L183.1 358.6L184.4 358.2L185.3 358.9L186.2 360.1L187.1 361.3L188.3 361.8L189.8 361.9L192.7 361.6L194.5 361.8L197.3 364.4L201.4 365.7L202.3 367.1L203 368.9L204.6 370.5L206.6 371.7L208.6 372.5L212.9 373.3L215.1 373.1L215.9 371.8L216.1 369.7L216.7 367.4L218.3 366L219.9 367.3L221.2 370L221.8 372.4V377.3L222.4 379.1L224.2 379.9L225.4 379.6L230.2 376.7L231.7 375.3L232.6 373.7L234.3 369.9L237.1 367.1L240.4 366.9L244 367.8L247.6 368.1L249.1 367.7L250.9 368.3L252.4 368.5L253.6 368.2L254.2 366.9L253.7 366L253.1 365.6ZM176.8 391.6L176.1 391.1L171.1 389L168.6 387.3L167.1 385.4L165.8 382.1L164.3 379.2L162.2 378L159.4 379.5L157.8 383.2L157.3 385.3L157.2 387.3L157.7 389.2L159.9 394.1L161 395.6L162.2 396.2L164.6 396.7L165.6 397.6L166 401L162.2 407.1L162.3 410.1L163.4 410.7L164.7 409.9L166 408.7L167 408L168.7 408.1L169.1 409.1L169.4 410.4L170.4 411.4L171.8 411.5L176 410.3H179.1L180.3 409.8L181.3 408.4L181.5 404.7L177.5 400.4L177.3 397.3L178.7 395.9L182.9 393L183.5 391.1L182.9 390L181.7 389.8L179.4 390.4L177.9 391.5L176.8 391.6ZM230 408.1L230.9 406.6L232.9 399.1L232.5 397.9L230.3 398.6L227 401.1L225.4 401.8L223.1 402L221.7 403.7L222.6 405.4L224.5 406.8L226.3 407.7L228.6 408.4L230 408.1ZM127.1 414.3L116.1 410.6H114.8L114.7 412.4L115.3 414.3L116.5 416.1L119.6 418.2L120.5 419.4L123.1 423.8L123.6 424.2L128.3 420.4L130.9 419.1L133.8 418.5L134.8 417.7L134.9 415.5L134.2 413.4L133.1 413.1L130.3 414.4L127.1 414.3Z" fill="#7C7C7C" stroke="white" stroke-width="2" stroke-linecap="round" stroke-linejoin="round"/>
<path d="M352.6 139.4L353.2 141L353.9 141.8L354.5 141.6H355.5L356.7 141.9L361.4 143.7L365.4 144.4L366.5 144.8L367.8 146.2L368.4 146.5H369.9L370.9 146.8L372 147.2L373.6 148.2L374.4 148.9L375.3 150L375.7 151.1L376.3 153.5L376.9 154.1L379.5 153.4L381.4 153.7L384.3 154.9H385.6L388.3 154.3L389.6 154.2L390.8 154.4L399.1 157.7L400.1 157.8L401.5 157.6L402.3 157.2L402.7 156.8L404 155.2L404.5 154.8L406.6 153.7L407.7 153.4L408.5 153.5L410.4 153.9L411.2 154.1L412.5 154.8L413.4 156.5L414.9 161.6L414.3 163.1L412.2 166.1L411.3 167.9L410.8 168.4L409.7 168.8H408.5L407.8 169.2L408 170.2L409.3 171.2L410 171.8L412 174.4L413.1 175.3L414.1 175.8L414.9 175.9L415.7 175.7L416.4 175.1L416.9 174.4L417.3 172.9L417.2 171.7L417.5 171.5L420.5 172.8L422.2 174.3L422.7 174.5L423.3 174.4L425.7 173.1L426.4 173.2L427.4 173.7L429.5 174.4L430.3 175.1L431 176.7L431.2 178.5L431.3 180.4L430.8 187V187.6L431.3 188.1L434.5 188.8L438.4 189L441.3 189.7L441.9 190L442.3 190.6L442.7 191.6L443.2 194.2L444.3 203.8V204.7L443.7 205.1L442.5 205L439.5 204L438.4 203.2L437.8 202.2L438 200.4V198.8L437.9 197.9L437.5 196.8L437 195.9L436.2 195.1L435.4 194.5L434.6 194.2L432.9 193.7L429.2 193.2L428 193.4L427.5 193.8L425.2 195.9L424.7 196.3L424.9 197H425.3L426.2 198.5L427.5 201.9L428 202.8L429.6 202.5L430.7 202.9L431.6 203.3L432.2 204L433.1 205.2L433.7 205.6L435.5 206.1L435.9 206.4L437.9 208.3L439.8 209.3L440.9 209.5L441.9 209.4L444.8 208.5L446.3 208.4L448.4 208.7L449.6 209.2L450.6 209.9L452 211.2L452.5 211.5H453.7L454.6 210.9L456 210.4L458.1 210.1L462.7 209.9L467.6 210.5L468.8 211.3L469.7 211.6L470.9 211.5L472.8 210.5L474.7 208.9L475.6 208.5L477.4 208.4L478.5 208.5L480 209.1L481.5 208.9L492.8 204L493.9 203.1L494.2 202L495 201.3L495.7 201.1H497.5L500.1 202.8L500.9 203.6L501 204.8L500.7 205.6L499.5 208.3L499.3 209.5L499.1 213.5L498.8 214.8L498 217.3L496.9 221.9L495.8 225.3L495.3 226.4L492.1 230.8L491.4 231.5L490.6 232.1L487.9 233L484.7 234.6L483.2 235.1L477.6 236L476.3 236.4L474.8 237L472.5 238.4L465.3 241L464.3 241.5L463.9 242V243L465.1 246L465.6 246.9L468 250.4L469.1 251.7L468.5 252.3L467.2 252.6L466.2 252.3L464.6 251.6L463.3 251.4L456.1 253L451.5 253.2L451.1 253.3L448.7 254.9L448 255.3L446.5 255.6L445.2 256.5L444.2 257.7L443.4 258.1H442.5L441.1 258L440.4 258.4L439.8 259.1L439.1 260.8L438.9 261.6L439.1 262.5L446 268.2L445.9 269.2L444.7 271.1L436.7 280.8L426.3 275.4L425.9 274.8L425.5 273.9L425.3 272.1L425.4 270.5L425.3 269.4L424.9 268.5L423.1 267.1L422.5 266.4L422.3 265.3L422.6 263.6L422.5 263L422.1 262.6L421.1 262.2L419.7 262.4L418.2 264.2L413.4 272.2L412.8 272.8L409.4 275.1L408.3 276.2L407.5 277.2L407.2 278.2L407.1 279.1L407.2 281.6L407.1 282.7L406.2 283.1L405 282.8L403.2 281.3L402.1 280.8L400.5 280.6L399.9 280.3L399.6 279.8L399.3 277.8L398.6 277L396.3 276.8L395.8 276.2L396.3 275L397.4 273.7L405.1 266.4L405.6 265.6V264.4L405.2 263.5L403 260.7H402.5L399.8 261.2L398.8 261.8L398.5 262.8L399 264.6L399.1 265.6L398.8 266.1L398.3 266.4L397 266.8L396 266.9L388.3 266.2L385.3 266.3L384.3 266L383.4 267L381.7 269.8L381.1 270.6L380 271.3L379.3 272L378.7 273.1L377.9 274.8L377.1 275.1L375.8 275.3L375.3 274.8L374.7 273.7L373.8 272.6L373.4 272.3L372.3 272.6L367.6 276.1L366.8 277L366.1 277.9L365.7 279.3L365.8 280.3L366 282L365.6 284.1V284.7L366.3 286.8V288.2L366 288.9L365.2 289.8L364 290.8L358.7 293.2L356.2 295.8L354.6 297.2L352.6 296.7L347.3 297.1L345.4 295.8L344.2 294L342.7 293L336 296.1L331.8 299.1L330.7 299.3L330.9 297.3L330.5 293.7L327 292.8L315.4 293.9L311.5 293.4L308 291.8L305.2 288.7L301.3 282.7L299.5 282L297.3 281.8L295.7 281V278.2L295.8 276.9L295.1 276L290.3 275.6L287.7 274.8L285.8 273.6L283.2 269.5L282 268.7L280.4 270L279.9 270.9L278.8 274.1L278.2 274.6L274.8 275.1L266.9 277.5L268.1 274.7L268.7 272.5V270.2L267.9 263.9L267.7 260.4L267.3 257.2L266.3 254.9L264 253.5L261.8 253.8L259.6 255.2L257.7 257L255 258.6L253.4 257.8L252 255.8L249.9 254L242.7 255.2L240.3 254.1L239.8 249L240.1 243.8L239.5 239.9L238.1 236.3L229.6 223.5L228.9 222.9L228.1 222.6L227.5 223.1V225.6L226.8 226.3L225.9 225.9L225.4 223.9L224.4 223.5L224 224.2L223.7 225.5L223.1 226.5L222.3 226.2L222.2 224.7L223.8 217.9V215.4L223.4 213.1L222.2 211.4L220.2 211.1L218.2 211.9L217.1 213.3L215.3 217.9L216.3 220L218.8 223.3L219.1 225.5L218.7 227.9L217.5 231.9L214.4 238.5L211.9 241.1L208.9 241.7L204.9 240L200.6 235.9L199.4 235.6L198.8 237.2L199.6 258L199.1 262.1L197.1 263.9L190.9 258.5L188.6 261.5L187.7 263.8H186.5L185.3 262.6L184.4 260.9L183.3 256.4L182.3 254.9L180.1 254.7L178.3 255.8L178 257.4L178.5 259.6L178.7 262.1L177.8 264.5L176.3 263.5L174.1 259.6L172.6 258.4L169.2 258L167.6 257L165.7 255.6L163.7 254.6L159.4 253.8L155.5 254.4L153.7 254.2L152.1 252.7L150.8 250.9L149.3 249.4L147.7 248.2L146 247.5L143.9 247.7L142.2 248.5L140.7 248.8L139.6 247.1L139.4 245L140.8 237.6L140.6 235.1L139.7 232.6L134.6 223.8L133.1 221.7L131.4 220.6L128.3 221.1L117.3 227.5L114.2 228.7L112 228.6L110.6 227.3L108.4 223.1L107.1 221.4L105.6 220L102.2 217.9L89.3999 216.5L86.0999 214.7L84.3999 210.8L86.2999 207.7L101 199L106.4 194.7L109.3 193.3L112 191.5L114.2 188.3L116.8 182.5L120.8 177.9L129.7 170.2L132.5 168.5L141.5 167.4L144.6 166.2L145.6 164.2L145.9 157.2L147.5 152.7L151.2 151.7L155.7 151.9L159.4 151L172.2 141.4L179.7 139.2L183 136.9L184.4 132.3L184.1 132.2L186.4 131.5L198.4 134.2L199.5 134.4L200.8 134.3L204.1 133.3L206 132.3L206.9 132L218.2 131.7L220.7 132.4L235.8 139.2L237.1 139.6L238.9 139.2L241.8 139.8L251.9 144L253.6 144.7L255.3 145.7L257.5 147.7L263.4 147.9L265.1 147.5L266.8 146.5L268.8 144.1L269.7 141.8L270.6 138L271.2 136.4L272 134.9L273.2 133.7L275.3 132.8L276.9 132.3L283.7 131.2H286.6L287.8 131.6L289.1 132.9L289.8 134.2L290.3 135.5L291.4 136.2L293 136.6L295.9 136.4L299 136.6L302.1 138.6L303.7 139.1L307.3 137.9L308.8 137.8L311.7 139.6L316.7 141.5L318.6 142.5L320.3 143.8L324.6 148.4L325.9 149L327.4 149.1L330.2 148.7L332.1 148L333.2 146.9L333.4 145.8L333.5 144.4L333.7 143.1L335.2 141.8L337.6 140.8L346.3 138.6L347 138.7L347.7 139.5L349.7 140.4L352.6 139.4Z" fill="#7C7C7C" stroke="white" stroke-width="2" stroke-linecap="round" stroke-linejoin="round"/>
<path d="M388.1 104.8L390.7 105.2L392.9 103.1L393.6 101.7L393.2 99.9L393.4 98.4L393.8 97.3L394.5 96.4H394.9L395.2 96.8L395.8 98.9L396.3 100L397.2 100.8L398.7 101.3H399.6L402.2 101L403.6 101.3L404.8 103L405 103.9L405.1 105.3L404.8 106.3L404.4 107L402 109.3L400.5 111.4L400 112.5L399.8 114.5L397.2 118L395.9 118.7L390.4 121.1L388.5 121.6H387L384.5 120.2L383.8 119.9L380.4 119.4L378.3 119.5L376.7 119.9L373.2 121.4L371.8 121.6L370.5 121.3L369.4 120.9L367.7 120.6L366.4 120.8L364.7 121.3L363 121.5L360.9 122.1L358.3 123.4L357.6 124L356.6 125.3L355.6 126.2L354.4 126.4L351.4 126.3L350.4 126.7L349.8 127.4L349.5 128.3L348.7 132V133.5L349 134.1L349.6 134.6L352.9 135.6L353.6 136.1L353.8 136.9L353.5 137.6L352.6 139.4L349.7 140.4L347.7 139.5L347 138.7L346.3 138.6L337.6 140.8L335.2 141.8L333.7 143.1L333.5 144.4L333.4 145.8L333.2 146.9L332.1 148L330.2 148.7L327.4 149.1L325.9 149L324.6 148.4L320.3 143.8L318.6 142.5L316.7 141.5L311.7 139.6L308.8 137.8L307.3 137.9L303.7 139.1L302.1 138.6L299 136.6L295.9 136.4L293 136.6L291.4 136.2L290.3 135.5L289.8 134.2L289.1 132.9L287.8 131.6L286.6 131.2H283.7L276.9 132.3L275.3 132.8L273.2 133.7L272 134.9L271.2 136.4L270.6 138L269.7 141.8L268.8 144.1L266.8 146.5L265.1 147.5L263.4 147.9L257.5 147.7L255.3 145.7L253.6 144.7L251.9 144L241.8 139.8L238.9 139.2L237.1 139.6L235.8 139.2L220.7 132.4L218.2 131.7L206.9 132L206 132.3L204.1 133.3L200.8 134.3L199.5 134.4L198.4 134.2L186.4 131.5L184.1 132.2L181.2 131.2L168.5 122.1L165.6 120.9L162.7 121.3L158.7 124.2L156.7 126.1L154.1 125.5L152.2 124.5L148.6 120.9L148.1 119L149.2 117.1L152.5 114L155.4 110.4L156 109L155.8 108.1L155.3 107.3L155.1 106L155.7 103.6L156.7 101.2L158 99.1L159.4 97.8L163.7 100.6L165.2 100.8L166.4 100.1L167.3 98.9L167.5 97.4L166.7 96L163.5 93.2L162.6 92L161.8 87.4L165.1 85.3L173 84.1L174.4 82.6L174.9 80.8L174.7 75.9L174.9 73.3L175.7 72.1L179.1 70.9L180.6 69.9L181.7 68.4L183.7 64.8L185.2 64L187.2 64.6L189.4 65.6L191.3 66L192.9 65.3L194.3 63.9L195.5 62.2L196.5 60.3L198.1 58.9L200.3 58.8L204.6 60.3L206.1 59.6L207.1 59.5L208 60L211.6 63.1L212.7 63.5L214.3 63.2L224.2 56.8L227.2 55.8L233.5 55.5L236.7 54.3L238.2 54L239.6 54.7L241 55.6L242.5 56.3L248 57.7L258.5 63.5L261.4 64.4L262.8 64.2L265.4 62.9L266.8 62.6L278.4 63.1L284.4 65.5L295.1 72.7L298.2 73.4L304.8 73.3L317.6 76.4L320.4 78L322.6 80.4L325.7 86.2L328 88.4L331.1 89.8L334.1 90.7L337.2 90.8L348.8 88.8L352.8 89L356.2 90.4L358 91.8L359.5 92.7L361.1 93.1L367.6 93.6L369.7 94.3L371 96L370.8 99.7L370.9 102.4L371.9 104L380.2 105.4L385.6 107.6L388.1 107.1V104.8Z" fill="#7C7C7C" stroke="white" stroke-width="2" stroke-linecap="round" stroke-linejoin="round"/>
<path d="M436.7 280.8L438.3 283.2L448.2 292L450.5 293.5L451.1 294.1L451.6 294.9L452.1 296.2L452.3 297.1L452.5 299.2L453 299.8L453.9 300.7L455.4 301.6L461.8 307.8L462.5 308.8L463.2 310.3L463.9 311.3L465.4 313.1L469.1 316.2L471 317.4L483.5 322L484.5 322.6L485.7 323.8L486.5 325.4V326.7L486.4 327.4L485.5 330.1L486.2 330.8L487.5 331.5L494.2 332.6L495.6 334.5L496.1 334.9L497.2 335.2L498.8 335.4L505.8 335.3L508.2 336.3L507.1 338L506.6 339.6L505.9 341.8L504.8 344.3L504.1 346.7L504.8 348.5L509 352.5L510.1 354.1L510.9 358L508.1 358.7L500.4 356.7L498.4 356.6L496.7 357.3L492.1 362.1L490.6 363.2L487 365.1L484 367.4L476 376.2L466.3 384.1L463.1 385.5L460.3 386L457.5 385.5L454.4 384.3L451.3 383.6L448 384L444.9 385.4L442 387.3L439.2 388.6L433.2 389.4L430.8 391.5L429.8 392.7L429.1 394.1L428.5 395.7L428.3 397.4L427.8 400.2L426.3 402.2L424.5 404L423.2 406.3L422.5 411.2L422.1 412.6L421.4 413.6L418.8 415.8L417.7 417.5L416.9 419.6L416.5 421.9L416.6 424.2L417.5 426.5L418.7 427.3L420.2 427.7L422 428.8L423.2 430.8L423.8 433.3L424.2 438.4L426.3 444.7L425.8 445.9L423.8 447.2L422.3 448.4L421.2 450.1L420.1 452.7L419.1 456.8L418.2 458.4L416.7 459.3L399.6 461.6L397.1 460.3L388.7 459.4L385.6 459.7L375.7 462.2L373.5 463.7L372.8 465.5L372.6 467.2L371.9 468.4L366.8 469.4L357.6 472.5L354.7 472.8L351.5 471.9L350 471.1L348.8 470.7L347.7 471L343.3 473.3L341.9 473.4L340.3 472.9L334.7 471.7L332.8 471.5L328.9 472.4L327.5 472.5L310.8 468H309.3L307.7 468.4L306.8 469.3L305 471.4L304 472.1H302.5L300.3 470.6L298.9 470.2L297.9 470.6L295.1 473.6L293.6 473.9L292.1 473.8L289.1 473L287.5 473.1L284.1 474.8L282.2 475.1L280.6 475.7L279.5 477.4L277.4 483.8L273.7 491.9L272.6 492L271.7 490.6L270.9 488.7L270.6 487.6V486.7L270.3 486L268.4 485L267.1 483.9L266.3 483.4L262.4 482.8L260.5 482L259.7 480.2L259.5 477.7L259 474.7L258 472.2L256.4 471L254.8 471.2L251.6 473L248.2 473.7L246.7 474.5L237.8 480.8L234.5 482.2L231.2 482.6L229.4 482.1L227.8 480.8L226.5 478.9L225.8 476.6L226 474.2L226.9 472.7L228.1 471.5L229.1 469.7L229.5 467.4L229.3 464.3L228.4 461.6L227 460.3L225.2 460.4L216 462.3L211.6 462.1L207.9 460.4L206 456.3L206.8 454.5L209.1 451.1L209.5 449.3L209 447.5L207.6 445.6L208.4 443.6L209.1 440.3L209.4 439.5L211.3 435.7L213.5 433.7L220.5 432L222.1 431L223.2 429.9L224.1 428.5L224.9 427.9L226 427.5H227.6L228.9 427.8L229.6 428.3L230.1 429.9L230.8 430.6L232.1 431.3L233.5 431.8L246.8 434.6L248.2 435.2L249.4 436.1L251.4 437.6L252.6 438.1L254.5 438.5L255.9 438.6L257.2 438.4L257.9 438.7L259.7 439.9L260.6 440L261.6 439.8L263.5 439L265 438.6L267.8 438.3L273.5 439.3L276.7 438.7L278.7 437.8L281.6 437L282.9 436.4L284 435.7L286.4 433.6L290.7 431.6L295.2 430.1L298.3 428.5L299.7 427.4L300.1 426.8L300.5 425.5L301.7 424L299.7 420.2L297.7 417.8L296.5 416.7L296 415.5L295.5 413L294.9 412.3L294 412.1L293.1 412.5L291.5 413.7H290.6L289.1 413L287.2 410L285.8 407.1L284.9 405.7L283.9 404.9L282.4 403.9L281.1 403.4L278.8 402.9L277.8 402.4L277.5 401.7L277.4 400.9L277.6 399.9L278 398.8L278.5 397.8L278.8 396.7L278.6 395.4L277.8 393.6L277.5 392.4L277.6 391.5L278 390.7L278.3 389.9L278.2 388.7L277.7 387.8L276.8 387L273.9 385.6L273.7 385L274.1 384.5L276 382.8L276.6 381.5L276.5 379.6L275.9 378.4L274.6 377.4L270.8 375.8L270 375L269.7 374.2L270.2 373.7L271.1 373.2L271.7 372.4L271.9 371.3L271.3 370L271.1 369V367.8L271.7 365.6L271.8 364.4L271.1 362.6L270.2 361.7L268.8 361.5L260.8 363.7L256.4 365.4L253.1 365.6L252.5 365.1L249.9 363.9L248.2 362.7L247.5 360.9L248 359.2L255.8 355.2L258.2 352.8L259.5 349.5L260.1 347.3L260.9 346L266.9 342.7L268.5 342.3L273.3 342L274.9 342.2L275.8 342.9L275.4 344.1L274.1 344.6L272.6 344.7L271.5 345L271.1 346.1L272.2 346.5L276.3 346.3L277.7 346.8L283 350L285.5 350.9L287.6 350.4L289.4 347.9L290.4 344.9L290.5 342.1L289.5 339.7L285.6 336.9L284.8 335.8V334.5L285.4 332.5V330.4L283.5 327.1L283.8 325.1L286.5 323.9L289.5 326.5L292.5 330.1L295.1 331.4L298.6 331.8L304.9 336.2L308.5 336L309.9 334.9L310.8 333.4L311.2 331.7L311.3 330L312 328H313.7L317 329.5L319.6 328.3L320.7 320.4L322.9 317L326 315.7L332.5 314L340.3 309.1L348.8 305.9L353.1 303.5L355.9 299.8L355.4 297.4L354.6 297.2L356.2 295.8L358.7 293.2L364 290.8L365.2 289.8L366 288.9L366.3 288.2V286.8L365.6 284.7V284.1L366 282L365.8 280.3L365.7 279.3L366.1 277.9L366.8 277L367.6 276.1L372.3 272.6L373.4 272.3L373.8 272.6L374.7 273.7L375.3 274.8L375.8 275.3L377.1 275.1L377.9 274.8L378.7 273.1L379.3 272L380 271.3L381.1 270.6L381.7 269.8L383.4 267L384.3 266L385.3 266.3L388.3 266.2L396 266.9L397 266.8L398.3 266.4L398.8 266.1L399.1 265.6L399 264.6L398.5 262.8L398.8 261.8L399.8 261.2L402.5 260.7H403L405.2 263.5L405.6 264.4V265.6L405.1 266.4L397.4 273.7L396.3 275L395.8 276.2L396.3 276.8L398.6 277L399.3 277.8L399.6 279.8L399.9 280.3L400.5 280.6L402.1 280.8L403.2 281.3L405 282.8L406.2 283.1L407.1 282.7L407.2 281.6L407.1 279.1L407.2 278.2L407.5 277.2L408.3 276.2L409.4 275.1L412.8 272.8L413.4 272.2L418.2 264.2L419.7 262.4L421.1 262.2L422.1 262.6L422.5 263L422.6 263.6L422.3 265.3L422.5 266.4L423.1 267.1L424.9 268.5L425.3 269.4L425.4 270.5L425.3 272.1L425.5 273.9L425.9 274.8L426.3 275.4L436.7 280.8Z" fill="#7C7C7C" stroke="white" stroke-width="2" stroke-linecap="round" stroke-linejoin="round"/>
<path d="M804 74.5C803.337 74.5 802.701 74.2366 802.232 73.7678C801.763 73.2989 801.5 72.663 801.5 72C801.5 71.337 801.763 70.7011 802.232 70.2322C802.701 69.7634 803.337 69.5 804 69.5C804.663 69.5 805.299 69.7634 805.768 70.2322C806.237 70.7011 806.5 71.337 806.5 72C806.5 72.3283 806.435 72.6534 806.31 72.9567C806.184 73.26 806 73.5356 805.768 73.7678C805.536 73.9999 805.26 74.1841 804.957 74.3097C804.653 74.4353 804.328 74.5 804 74.5ZM804 65C802.143 65 800.363 65.7375 799.05 67.0503C797.737 68.363 797 70.1435 797 72C797 77.25 804 85 804 85C804 85 811 77.25 811 72C811 70.1435 810.263 68.363 808.95 67.0503C807.637 65.7375 805.857 65 804 65Z" fill="white"/>
<path d="M488 38.5C487.337 38.5 486.701 38.2366 486.232 37.7678C485.763 37.2989 485.5 36.663 485.5 36C485.5 35.337 485.763 34.7011 486.232 34.2322C486.701 33.7634 487.337 33.5 488 33.5C488.663 33.5 489.299 33.7634 489.768 34.2322C490.237 34.7011 490.5 35.337 490.5 36C490.5 36.3283 490.435 36.6534 490.31 36.9567C490.184 37.26 490 37.5356 489.768 37.7678C489.536 37.9999 489.26 38.1841 488.957 38.3097C488.653 38.4353 488.328 38.5 488 38.5ZM488 29C486.143 29 484.363 29.7375 483.05 31.0503C481.737 32.363 481 34.1435 481 36C481 41.25 488 49 488 49C488 49 495 41.25 495 36C495 34.1435 494.263 32.363 492.95 31.0503C491.637 29.7375 489.857 29 488 29Z" fill="white"/>
</g>
<defs>
<clipPath id="clip0_30_2">
<rect width="1000" height="493" fill="white"/>
</clipPath>
</defs>
</svg>
